<?xml version="1.0" standalone="no"?>
<!DOCTYPE svg PUBLIC "-//W3C//DTD SVG 1.1//EN" "http://www.w3.org/Graphics/SVG/1.1/DTD/svg11.dtd" >
<svg xmlns="http://www.w3.org/2000/svg" xmlns:xlink="http://www.w3.org/1999/xlink" version="1.1">
<metadata></metadata>
<defs>
<font id="rokkittsemibold" horiz-adv-x="735" >
<font-face units-per-em="2048" ascent="1638" descent="-410" />
<missing-glyph horiz-adv-x="632" />
<glyph horiz-adv-x="0" />
<glyph unicode="&#xd;" horiz-adv-x="632" />
<glyph horiz-adv-x="0" />
<glyph horiz-adv-x="0" />
<glyph unicode=" "  horiz-adv-x="632" />
<glyph unicode="&#x09;" horiz-adv-x="632" />
<glyph unicode="&#xa0;" horiz-adv-x="632" />
<glyph unicode="!" horiz-adv-x="391" d="M61 100q0 49 35 83t88 34q55 0 90 -33.5t35 -83.5q0 -49 -34.5 -81.5t-90.5 -32.5q-53 0 -88 32.5t-35 81.5zM86 854v356h195v-356l-37 -526h-121z" />
<glyph unicode="&#x22;" horiz-adv-x="677" d="M102 1307h197l-35 -441h-121zM378 1307h197l-35 -441h-121z" />
<glyph unicode="#" horiz-adv-x="1189" d="M70 334l10 123h196l46 295h-207l10 125h223l49 315h152l-51 -315h288l52 315h151l-51 -315h190l-10 -125h-205l-45 -295h215l-10 -123h-231l-54 -340h-151l55 340h-291l-53 -340h-149l51 340h-180zM426 457h289l47 295h-289z" />
<glyph unicode="$" horiz-adv-x="1128" d="M98 856q0 154 101.5 242t271.5 88h23v168h118v-187q109 -31 176 -110v106h160v-332h-147q-43 158 -189 197v-338q205 -39 298.5 -118.5t93.5 -241.5q0 -100 -46.5 -180t-132.5 -125t-204 -45h-9v-160h-118v176q-68 18 -125.5 55t-96.5 86v-137h-166v393h152 q16 -94 78.5 -161.5t157.5 -94.5v365l-25 4q-371 70 -371 350zM315 885q0 -66 44 -108t135 -64v327q-84 -2 -131.5 -44t-47.5 -111zM612 125q86 4 134.5 47t48.5 121q0 84 -40 124t-143 62v-354z" />
<glyph unicode="%" horiz-adv-x="1556" d="M92 893q0 129 83 211t210 82q129 0 212 -82t83 -211t-83 -213t-212 -84q-127 0 -210 84t-83 213zM229 893q0 -82 44 -134t112 -54q70 2 114 54t44 134t-44 134t-114 52q-68 -2 -112 -53t-44 -133zM336 -2l768 1171h119l-764 -1171h-123zM877 276q0 127 82.5 209t209.5 82 q129 0 212 -82t83 -209q0 -131 -83 -215t-212 -84q-127 0 -209.5 84t-82.5 215zM1016 276q0 -82 42 -135t107 -53q72 0 117 52.5t45 135.5q0 82 -44 133.5t-114 51.5q-66 0 -109.5 -51.5t-43.5 -133.5z" />
<glyph unicode="&#x26;" horiz-adv-x="1372" d="M109 342q0 227 299 342q-57 72 -87 134.5t-30 129.5q0 109 88 180.5t235 71.5q137 0 220.5 -69.5t83.5 -172.5q0 -195 -254 -309l245 -284q37 49 63.5 122.5t41.5 147.5h266v-135l-139 -2q-45 -152 -129 -256l88 -103h182v-139h-303l-90 115q-147 -135 -361 -135 q-127 0 -222 48t-146 130t-51 184zM313 350q0 -88 68 -153.5t176 -65.5q139 0 231 100l-290 347q-184 -70 -185 -228zM475 961q0 -45 25.5 -91.5t77.5 -109.5q88 39 130 86t42 108q0 57 -38 90t-100 33q-66 0 -101.5 -30.5t-35.5 -85.5z" />
<glyph unicode="'" horiz-adv-x="401" d="M102 1307h197l-35 -441h-121z" />
<glyph unicode="(" horiz-adv-x="624" d="M102 520q0 227 118 411.5t331 262.5l4 -117q-115 -66 -174 -215t-59 -338q0 -190 59 -339.5t174 -217.5l-4 -117q-213 78 -331 261.5t-118 408.5z" />
<glyph unicode=")" horiz-adv-x="624" d="M104 -33q113 68 173.5 218.5t60.5 338.5t-60.5 338t-173.5 215l5 117q213 -78 331.5 -263.5t118.5 -410.5t-118.5 -408.5t-331.5 -261.5z" />
<glyph unicode="*" horiz-adv-x="927" d="M59 838l47 159l334 -163l-61 362h176l-61 -362l335 163l45 -159l-352 -62l256 -260l-143 -102l-168 329l-168 -329l-143 102l256 260z" />
<glyph unicode="+" horiz-adv-x="1185" d="M150 510v129h370v387h146v-387h372v-129h-372v-387h-146v387h-370z" />
<glyph unicode="," horiz-adv-x="518" d="M125 -164q61 10 87 45t26 119h-111v215h227v-178q0 -143 -54 -215t-175 -72v86z" />
<glyph unicode="-" d="M109 412v139h518v-139h-518z" />
<glyph unicode="." horiz-adv-x="505" d="M123 0v213h219v-213h-219z" />
<glyph unicode="/" horiz-adv-x="712" d="M20 -287l580 1512h170l-580 -1512h-170z" />
<glyph unicode="0" horiz-adv-x="1126" d="M106 586q0 283 117 440.5t340 157.5q221 0 339 -157t118 -441q0 -293 -117 -451t-340 -158t-340 157t-117 452zM315 586q0 -225 62.5 -341t185.5 -116t185.5 115.5t62.5 341.5q0 221 -62.5 334.5t-185.5 113.5t-185.5 -113.5t-62.5 -334.5z" />
<glyph unicode="1" horiz-adv-x="708" d="M82 1108l399 55v-1026h176v-137h-569v137h182v867l-182 -29z" />
<glyph unicode="2" horiz-adv-x="989" d="M84 0l2 131l342 338q141 141 193.5 218t52.5 167q0 80 -46 132t-139 52q-96 0 -151 -57t-55 -158q0 -49 16 -121h-182q-20 72 -21 132q0 158 109.5 254t304.5 96q172 0 270.5 -84t98.5 -223q0 -82 -36 -157t-103.5 -150.5t-190.5 -192.5l-238 -234h420v207h156l2 -350 h-805z" />
<glyph unicode="3" horiz-adv-x="1028" d="M61 246l164 78q90 -188 285 -189q104 0 163.5 50.5t59.5 138.5q0 109 -77.5 160t-241.5 51v135q147 0 226 50t79 146q0 76 -53.5 120t-149.5 44t-163.5 -51t-94.5 -141l-170 67q45 133 161 206t277 73q180 0 284.5 -82t104.5 -219q0 -98 -59 -170t-158 -103 q111 -26 177.5 -103t66.5 -192q0 -156 -116.5 -245.5t-313.5 -89.5q-164 0 -277.5 68.5t-173.5 197.5z" />
<glyph unicode="4" horiz-adv-x="1007" d="M20 436l551 727h193v-712h176v-129h-176v-185h141v-137h-524v137h188v185h-530zM193 451h376v501z" />
<glyph unicode="5" horiz-adv-x="1056" d="M90 162l103 131q72 -74 149.5 -113t171.5 -39q119 0 185.5 61.5t66.5 164.5q0 102 -61.5 162.5t-169.5 60.5q-135 0 -240 -101l-152 58l15 616h745v-299h-162v154h-424l-10 -350q115 82 275 82q184 0 284.5 -103.5t100.5 -275.5q0 -182 -122 -288t-319 -106 q-248 0 -436 185z" />
<glyph unicode="6" horiz-adv-x="999" d="M82 375q0 121 41 221t162 281l260 389l153 -103l-299 -440q70 33 156 33q104 0 189 -47t134.5 -133.5t49.5 -196.5q0 -117 -54.5 -208t-150.5 -141t-217 -50q-125 0 -221.5 49t-149.5 139t-53 207zM285 373q0 -106 58 -174t167 -68q102 0 162.5 67.5t60.5 178.5 q0 109 -58.5 173t-158.5 64q-98 0 -164.5 -65.5t-66.5 -175.5z" />
<glyph unicode="7" horiz-adv-x="942" d="M35 831v332h825v-131l-391 -1032h-207l385 1022h-440v-191h-172z" />
<glyph unicode="8" horiz-adv-x="1009" d="M70 309q0 104 58 179t163 114q-182 86 -182 268q0 141 108.5 227.5t288.5 86.5t289.5 -83t109.5 -222q0 -96 -48 -166t-144 -109q113 -35 170 -108.5t57 -178.5q0 -98 -52 -176t-150.5 -121t-231.5 -43q-205 0 -320.5 92.5t-115.5 239.5zM276 317q0 -96 61.5 -153.5 t166.5 -57.5q102 0 160.5 57.5t58.5 151.5q0 100 -71.5 151.5t-231.5 80.5q-53 -16 -98.5 -80t-45.5 -150zM319 864q0 -90 67 -140t198 -71q45 23 84 79t39 136q0 84 -50.5 133.5t-144.5 49.5q-90 0 -141.5 -50.5t-51.5 -136.5z" />
<glyph unicode="9" horiz-adv-x="999" d="M74 786q0 117 53 208t149.5 141.5t217.5 50.5q124 0 220.5 -49.5t150 -139.5t53.5 -209q0 -123 -41 -222t-162 -277l-260 -389l-152 102l299 440q-70 -33 -156 -32q-106 0 -191 47t-133 133t-48 196zM268 788q0 -109 57.5 -173t157.5 -64q99 0 165.5 65.5t66.5 176.5 q0 106 -58.5 173.5t-164.5 67.5q-104 0 -164 -67.5t-60 -178.5z" />
<glyph unicode=":" horiz-adv-x="505" d="M123 0v213h219v-213h-219zM123 596v213h219v-213h-219z" />
<glyph unicode=";" horiz-adv-x="518" d="M123 596v213h219v-213h-219zM125 -164q61 10 87 45t26 119h-111v215h227v-178q0 -143 -54 -215t-175 -72v86z" />
<glyph unicode="&#x3c;" horiz-adv-x="1067" d="M150 518v123l808 389v-149l-653 -301l653 -301v-150z" />
<glyph unicode="=" horiz-adv-x="1153" d="M150 340v129h856v-129h-856zM150 696v129h856v-129h-856z" />
<glyph unicode="&#x3e;" horiz-adv-x="1067" d="M109 129v150l653 301l-653 301v149l809 -389v-123z" />
<glyph unicode="?" horiz-adv-x="876" d="M47 883q6 168 115.5 255t275.5 87q172 0 273.5 -83t101.5 -218q0 -86 -43 -151.5t-139 -156.5q-84 -80 -110.5 -130t-26.5 -142v-18h-191v18q0 102 37 166.5t127 155.5q70 70 97.5 121t27.5 118q0 78 -43 120t-119 42q-84 0 -130 -48t-48 -136h-205zM274 100q0 49 36 83 t87 34q55 0 91 -33.5t36 -83.5q0 -49 -35.5 -82.5t-91.5 -33.5q-51 0 -87 33.5t-36 82.5z" />
<glyph unicode="@" horiz-adv-x="1456" d="M106 555q0 168 80 320.5t233.5 247t360.5 94.5q190 0 317.5 -74t186.5 -193t59 -254q0 -119 -47 -227.5t-125.5 -176t-166.5 -67.5q-119 0 -119 123q0 23 2 35q-37 -74 -95.5 -118t-136.5 -44q-70 0 -130 37t-97 106.5t-37 165.5q0 102 41 198.5t122 158t194 61.5 q78 0 132 -45t66 -117l27 146h114l-98 -459q-14 -63 -14 -104q0 -51 24 -58q6 -2 19 -2q45 0 99 51.5t91 139.5t37 194q0 113 -54 210t-160.5 155.5t-256.5 58.5q-158 0 -282.5 -72.5t-195.5 -201.5t-71 -291q0 -236 148.5 -374t414.5 -138q227 0 369 109l60 -74 q-172 -133 -429 -133q-221 0 -375.5 86t-230.5 225t-76 301zM510 528q0 -92 43 -151.5t125 -59.5q63 0 115.5 47.5t83 127t30.5 174.5q0 86 -46 134t-126 48q-68 0 -119 -46t-78.5 -120t-27.5 -154z" />
<glyph unicode="A" horiz-adv-x="1421" d="M53 0v143h137l320 877h-125v143h649v-143h-127l328 -877h131v-143h-514v143h145l-100 293h-399l-99 -293h140v-143h-486zM541 573h315l-149 445h-13z" />
<glyph unicode="B" horiz-adv-x="1241" d="M86 0v143h145v877h-145v143h610q201 0 304.5 -74.5t103.5 -211.5q0 -98 -50 -162t-143 -90q127 -27 190.5 -105t63.5 -190q0 -147 -107.5 -238.5t-330.5 -91.5h-641zM459 143h227q246 0 246 203q0 92 -62.5 143.5t-189.5 51.5h-221v-398zM459 682h205q210 0 210 172 q0 90 -55 128t-182 38h-178v-338z" />
<glyph unicode="C" horiz-adv-x="1396" d="M92 582q0 176 77 313t217 213t321 76q129 0 230 -45t161 -123v147h159v-372l-139 -5q-61 123 -152.5 179.5t-224.5 56.5q-127 0 -221 -56.5t-145 -155.5t-51 -224q0 -133 52 -234.5t145 -157t212 -55.5q135 0 233.5 66.5t143.5 206.5l174 -72q-63 -182 -209.5 -271 t-355.5 -92q-182 0 -324.5 76t-222.5 213t-80 316z" />
<glyph unicode="D" horiz-adv-x="1433" d="M88 0v143h143v877h-143v143h651q195 0 332 -78.5t204.5 -209t67.5 -283.5q0 -176 -67.5 -309t-202.5 -208t-332 -75h-653zM461 143h248q203 0 300 121t97 324q0 186 -98.5 309t-292.5 123h-254v-877z" />
<glyph unicode="E" horiz-adv-x="1239" d="M86 0v143h145v877h-145v143h1042v-364h-157v221h-510v-350h297v131h114v-404h-112v131h-299v-385h520v234h158v-377h-1053z" />
<glyph unicode="F" horiz-adv-x="1157" d="M86 0v143h145v877h-145v143h1028v-372h-158v229h-497v-346h291v121h116v-394h-114v127h-293v-385h151v-143h-524z" />
<glyph unicode="G" horiz-adv-x="1435" d="M90 584q0 176 80 313t223.5 212t327.5 75q129 0 228.5 -42t164.5 -118v139h168v-379h-145q-53 117 -151.5 178.5t-231.5 61.5q-195 0 -308.5 -116.5t-113.5 -315.5q0 -209 111.5 -330t301.5 -121q160 4 261.5 81t109.5 233h-231v149h450v-69q0 -262 -159.5 -408.5 t-438.5 -146.5q-197 0 -343 75.5t-225 213t-79 315.5z" />
<glyph unicode="H" horiz-adv-x="1462" d="M86 0v143h145v877h-145v143h518v-143h-145v-352h547v352h-148v143h520v-143h-145v-877h145v-143h-520v143h148v381h-547v-381h145v-143h-518z" />
<glyph unicode="I" horiz-adv-x="724" d="M102 0v143h146v877h-146v143h521v-143h-146v-877h146v-143h-521z" />
<glyph unicode="J" horiz-adv-x="710" d="M55 -72h107q74 0 101.5 43t27.5 131v924h-150v137h514v-137h-137v-915q0 -184 -73.5 -269.5t-241.5 -85.5h-148v172z" />
<glyph unicode="K" horiz-adv-x="1341" d="M86 0v143h145v877h-145v143h520v-143h-145v-406l432 406h-123v143h500v-143h-133l-455 -428l469 -449h133v-143h-518v143h119l-424 410v-410h145v-143h-520z" />
<glyph unicode="L" horiz-adv-x="1105" d="M86 0v143h145v883h-145v137h518v-137h-145v-883h426v340h170v-483h-969z" />
<glyph unicode="M" horiz-adv-x="1742" d="M88 0v143h141v877h-141v143h455l338 -749l323 749h451v-143h-142v-877h142v-143h-496v143h137v826l-399 -914h-86l-405 914v-826h137v-143h-455z" />
<glyph unicode="N" horiz-adv-x="1474" d="M88 0v143h150v877h-150v143h412l604 -868v725h-154v143h463v-143h-145v-1020h-228l-643 930v-787h154v-143h-463z" />
<glyph unicode="O" horiz-adv-x="1466" d="M92 578q0 168 80 307t225.5 219t335.5 80q188 0 333.5 -80t225.5 -218t80 -306t-79 -306.5t-224 -217.5t-336 -79q-190 0 -335.5 79t-225.5 216.5t-80 305.5zM334 580q0 -125 48 -225.5t138 -158t213 -57.5q121 0 212 58.5t139.5 159t48.5 225.5t-48.5 225t-139.5 158.5 t-212 58.5q-123 0 -213 -58.5t-138 -159.5t-48 -226z" />
<glyph unicode="P" horiz-adv-x="1200" d="M86 0v143h145v877h-145v143h594q225 0 341 -84t116 -252q0 -176 -116 -266t-339 -90h-143v143h125q115 0 176 54.5t61 154.5q0 94 -55 145.5t-158 51.5h-229v-877h151v-143h-524z" />
<glyph unicode="Q" horiz-adv-x="1462" d="M92 578q0 168 80 307t225.5 219t335.5 80q188 0 333.5 -80t225.5 -218t80 -306q0 -152 -64.5 -280t-184 -210t-281.5 -104q98 -145 260 -146q61 0 139 23l2 -144q-67 -24 -141 -24h-6q-291 0 -453 291q-166 16 -291 98t-192.5 211t-67.5 283zM334 580q0 -125 48 -225.5 t138 -158t213 -57.5q121 0 212 58.5t139.5 159t48.5 225.5t-48.5 225t-139.5 158.5t-212 58.5q-123 0 -213 -58.5t-138 -159.5t-48 -226z" />
<glyph unicode="R" horiz-adv-x="1327" d="M86 0v143h145v877h-145v143h643q199 0 312.5 -78.5t113.5 -238.5q0 -256 -278 -309l239 -394h154v-143h-316l-297 512h-122v145h167q119 0 170.5 53.5t51.5 135.5q0 78 -50.5 126t-148.5 48h-266v-877h143v-143h-516z" />
<glyph unicode="S" horiz-adv-x="1118" d="M127 856q0 154 101.5 242t271.5 88q102 0 184 -34t133 -95v106h160v-332h-148q-23 88 -90 148.5t-202 60.5q-90 0 -141.5 -42t-51.5 -113q0 -76 57.5 -119t178.5 -66l57 -10q209 -39 302 -118.5t93 -241.5q0 -100 -46 -180t-132 -125t-205 -45q-106 0 -200.5 41.5 t-147.5 115.5v-137h-166v393h152q23 -119 112.5 -193.5t225.5 -74.5q92 0 145 44t53 124q0 63 -23.5 101t-75.5 59.5t-149 38.5l-77 14q-371 70 -371 350z" />
<glyph unicode="T" horiz-adv-x="1202" d="M51 750v413h1098v-413h-158v272h-274v-879h149v-143h-526v143h149v879h-278v-272h-160z" />
<glyph unicode="U" horiz-adv-x="1388" d="M59 1020v143h512v-143h-145v-612q0 -129 76 -202t211 -73q143 0 223 73t80 204v610h-133v143h458v-143h-143v-606q0 -213 -132 -323.5t-366 -110.5q-251 0 -376 117.5t-125 324.5v598h-140z" />
<glyph unicode="V" horiz-adv-x="1345" d="M31 1020v143h516v-143h-148l297 -770l289 770h-143v143h469v-143h-129l-412 -1020h-178l-428 1020h-133z" />
<glyph unicode="W" horiz-adv-x="1882" d="M43 1020v143h475v-143h-137l219 -723l279 842h153l279 -842l217 723h-142v143h453v-143h-131l-317 -1020h-170l-275 807l-274 -807h-168l-330 1020h-131z" />
<glyph unicode="X" horiz-adv-x="1337" d="M59 0v139h140l331 453l-317 432h-137v139h504v-139h-123l223 -317l221 317h-125v139h475v-139h-137l-315 -426l338 -459h141v-139h-512v139h125l-238 344l-239 -344h129v-139h-484z" />
<glyph unicode="Y" horiz-adv-x="1323" d="M27 1020v143h528v-143h-139l274 -402l264 402h-139v143h481v-143h-143l-373 -543v-334h158v-143h-543v143h158v332l-385 545h-141z" />
<glyph unicode="Z" horiz-adv-x="1191" d="M111 0v133l673 889h-489v-258h-158v399h940v-125l-678 -897h535v279h160v-420h-983z" />
<glyph unicode="[" horiz-adv-x="684" d="M215 -195v1440h365v-127h-170v-1184h170v-129h-365z" />
<glyph unicode="\" horiz-adv-x="667" d="M39 1225h168l477 -1512h-168z" />
<glyph unicode="]" horiz-adv-x="684" d="M102 -66h172v1184h-172v127h365v-1440h-365v129z" />
<glyph unicode="^" horiz-adv-x="1017" d="M80 553l346 668h166l346 -668h-174l-254 514l-256 -514h-174z" />
<glyph unicode="_" horiz-adv-x="940" d="M12 -82h916v-98h-916v98z" />
<glyph unicode="`" horiz-adv-x="720" d="M205 1284h209l102 -317h-123z" />
<glyph unicode="a" horiz-adv-x="952" d="M74 217q0 131 90 192.5t233 61.5q102 0 209 -27v68q0 88 -46 132t-132 44q-59 0 -132 -18.5t-142 -53.5l-54 123q80 45 174.5 68.5t180.5 23.5q166 0 259 -81.5t93 -221.5v-395h117v-133h-289l-14 74q-63 -49 -128 -73t-145 -24q-123 0 -198.5 68t-75.5 172zM260 229 q0 -57 37 -93t102 -36q104 0 207 74v170q-94 23 -176 23q-74 0 -122 -33t-48 -105z" />
<glyph unicode="b" horiz-adv-x="1077" d="M43 0v133h135v920h-131v131h334v-445q57 45 125.5 68.5t140.5 23.5q111 0 198 -50t136 -143t49 -222q0 -133 -53 -232.5t-146.5 -151.5t-205.5 -52q-145 0 -248 83l-2 -63h-332zM381 199q90 -68 188 -68q111 0 180.5 71.5t69.5 200.5t-66.5 201t-174.5 72 q-106 0 -197 -76v-401z" />
<glyph unicode="c" horiz-adv-x="952" d="M47 412q0 123 54.5 218t149.5 148t214 53q84 0 148.5 -28.5t103.5 -77.5v88h151v-307h-139q-16 86 -73.5 133t-147.5 47q-115 0 -187.5 -74.5t-72.5 -191.5q0 -127 75.5 -206t198.5 -79q90 0 155.5 33t125.5 96l71 -123q-140 -161 -375 -161h-3q-131 0 -232.5 55 t-159 153.5t-57.5 223.5z" />
<glyph unicode="d" horiz-adv-x="1062" d="M51 408q0 129 51.5 225t140.5 147t197 51q143 0 262 -86v308h-139v131h342v-1051h119v-133h-315l-2 57q-109 -80 -254 -80q-113 0 -204 52.5t-144.5 149.5t-53.5 229zM262 397q0 -125 70.5 -195.5t179.5 -70.5q100 0 190 62v417q-100 68 -202 68q-106 0 -172 -74 t-66 -207z" />
<glyph unicode="e" horiz-adv-x="940" d="M47 406q0 127 56.5 223t154.5 149t221 53q186 0 294 -114.5t108 -302.5v-47h-631q14 -111 86 -173.5t180 -62.5q82 0 157 31t132 84l63 -123q-63 -66 -155 -106t-205 -40q-133 0 -237.5 52.5t-164 149.5t-59.5 227zM250 475h436q0 100 -57.5 158.5t-151.5 58.5 q-92 0 -153.5 -58.5t-73.5 -158.5z" />
<glyph unicode="f" horiz-adv-x="649" d="M68 0v133h143v545h-141v133h141v147q0 127 71.5 202t215.5 75q115 0 184.5 -52.5t79.5 -158.5l-156 -37q-8 57 -29.5 87t-66.5 30q-96 0 -96 -146v-147h231v-133h-231v-545h186v-133h-532z" />
<glyph unicode="g" horiz-adv-x="1067" d="M57 410q0 129 51.5 224t141.5 145t207 50q70 0 141.5 -25.5t122.5 -66.5v74h323v-133h-124v-676q0 -197 -115 -294t-311 -97q-154 0 -324 55l35 141q154 -47 266 -47q119 0 182.5 55.5t63.5 166.5v92q-113 -84 -256 -84q-117 0 -208 51t-143.5 145.5t-52.5 223.5z M268 403q0 -124 70 -194t178 -70q106 0 201 66l-2 405q-104 72 -211 72q-106 0 -171 -73.5t-65 -205.5z" />
<glyph unicode="h" horiz-adv-x="1081" d="M23 0v133h135v920h-133v131h337v-455q154 102 291 102q121 0 196 -74.5t75 -201.5v-422h133v-133h-455v133h119v387q0 76 -37 119t-100 43q-104 0 -222 -76v-473h115v-133h-454z" />
<glyph unicode="i" horiz-adv-x="557" d="M41 0v133h139v545h-137v133h340v-678h131v-133h-473zM127 1104q0 55 38 91t95 36t95 -36t38 -91t-38 -91t-95 -36t-95 36t-38 91z" />
<glyph unicode="j" horiz-adv-x="544" d="M2 -166h84q80 0 110.5 38t30.5 126v674h-159v139h364v-774q0 -182 -71.5 -269t-264.5 -87h-94v153zM164 1106q0 55 38 90t95 35q59 0 96 -35t37 -90v-6q0 -53 -36 -87q-38 -36 -97 -36q-57 0 -95 36t-38 93z" />
<glyph unicode="k" horiz-adv-x="1046" d="M45 0v133h137v920h-133v131h334v-752l322 246h-136v133h441v-133h-109l-313 -248l293 -297h135v-133h-252l-381 397v-264h121v-133h-459z" />
<glyph unicode="l" horiz-adv-x="544" d="M47 0v133h135v920h-131v131h334v-1051h121v-133h-459z" />
<glyph unicode="m" horiz-adv-x="1632" d="M41 0v133h139v545h-139v133h334l2 -78q152 98 285 98q82 0 141 -33.5t90 -92.5q86 61 164 93.5t164 32.5q119 0 194.5 -74.5t75.5 -201.5v-422h133v-133h-455v133h119v387q0 76 -37 119t-102 43q-104 0 -223 -78q4 -33 4 -51v-420h133v-133h-453v133h119v387 q0 76 -37 119t-102 43q-86 0 -207 -66v-483h125v-133h-467z" />
<glyph unicode="n" horiz-adv-x="1077" d="M41 0v133h139v545h-139v133h334l2 -78q152 98 287 98q121 0 195.5 -74.5t74.5 -201.5v-422h135v-133h-455v133h117v387q0 76 -37 119t-102 43q-94 0 -209 -70v-479h125v-133h-467z" />
<glyph unicode="o" horiz-adv-x="978" d="M47 406q0 127 55.5 224t154.5 149t230 52t232.5 -52t157 -148t55.5 -223t-55.5 -225.5t-157 -152t-232.5 -53.5t-230 53.5t-154.5 151t-55.5 224.5zM246 406q0 -125 66.5 -199t179.5 -74q110 0 175.5 75t65.5 200q0 123 -66.5 195.5t-179.5 72.5q-111 0 -176 -73 t-65 -197z" />
<glyph unicode="p" horiz-adv-x="1062" d="M35 -195h131v873h-129v133h317l4 -72q121 92 269 92q112 0 199 -50t136.5 -144t49.5 -221q0 -133 -54.5 -232.5t-145.5 -151.5t-204 -52q-72 0 -135 21.5t-104 55.5v-252h147v-133h-481v133zM369 193q84 -61 184 -62q111 0 179.5 71.5t68.5 203.5q0 125 -66.5 197.5 t-173.5 72.5q-43 0 -96 -17.5t-96 -50.5v-415z" />
<glyph unicode="q" horiz-adv-x="1089" d="M51 406q0 131 52.5 227t142.5 147t203 51q74 0 144.5 -24.5t131.5 -69.5l2 74h324v-133h-129v-875h131v-139h-484v139h150v267q-55 -45 -124 -69t-140 -24q-111 0 -203 52.5t-146.5 149.5t-54.5 227zM260 397q0 -125 70.5 -195.5t181.5 -70.5q109 0 207 70v401 q-106 76 -223 76q-104 0 -170 -75t-66 -206z" />
<glyph unicode="r" horiz-adv-x="806" d="M61 0v133h140v545h-140v133h340v-154q72 166 213 166q78 0 162 -39l-45 -176q-74 45 -151 45q-74 0 -125.5 -55t-51.5 -156l-2 -309h136v-133h-476z" />
<glyph unicode="s" horiz-adv-x="901" d="M111 594q0 111 82.5 174t218.5 63q63 0 125.5 -18t103.5 -51v51h145v-270h-131l-12 96q-33 31 -86 49.5t-106 18.5q-61 0 -103.5 -26t-42.5 -73q0 -41 32 -62.5t103 -39.5l99 -21q143 -32 212.5 -87.5t69.5 -176.5q0 -117 -88 -179t-217 -62q-80 0 -148.5 22.5 t-111.5 63.5v-66h-143v274h131l8 -86q37 -41 97.5 -63.5t123.5 -22.5q70 0 114 28t44 75q0 53 -37 76.5t-133 44.5l-99 22q-131 31 -191 85t-60 161z" />
<glyph unicode="t" horiz-adv-x="634" d="M37 678v133h123v270l205 56v-326h202v-133h-202v-416q0 -70 23.5 -98.5t80.5 -28.5h113v-135h-179q-243 0 -243 240v438h-123z" />
<glyph unicode="u" horiz-adv-x="1064" d="M23 678v133h327v-528q0 -74 34 -114t103 -40q113 0 218 88v461h-125v133h327v-678h135v-133h-327l-4 90q-144 -110 -290 -110h-3q-135 0 -204 77.5t-69 198.5v422h-122z" />
<glyph unicode="v" horiz-adv-x="1050" d="M10 678v133h453v-133h-115l203 -481l199 481h-113v133h403v-133h-112l-312 -678h-180l-307 678h-119z" />
<glyph unicode="w" horiz-adv-x="1460" d="M14 678v133h383v-133h-98l170 -496l168 496h-100v133h395v-133h-103l177 -496l157 496h-100v133h381v-133h-98l-240 -678h-191l-186 518l-184 -518h-191l-245 678h-95z" />
<glyph unicode="x" horiz-adv-x="1040" d="M41 0v133h106l254 281l-239 264h-113v133h418v-133h-102l159 -182l160 182h-102v133h415v-133h-123l-233 -260l258 -285h107v-133h-424v133h114l-180 197l-174 -197h107v-133h-408z" />
<glyph unicode="y" horiz-adv-x="1067" d="M12 678v133h447v-133h-113l217 -485l197 485h-127v133h428v-133h-113l-313 -729q-51 -117 -85 -170t-91.5 -82t-159.5 -29h-100v156h86q80 0 116.5 22.5t67.5 102.5l41 104h-70l-301 625h-127z" />
<glyph unicode="z" horiz-adv-x="909" d="M90 0v121l492 561h-346v-160h-138v289h721v-127l-495 -559h368v180h139v-305h-741z" />
<glyph unicode="{" horiz-adv-x="710" d="M88 481v127q102 0 136 63.5t34 213.5q0 137 14.5 208.5t76 114.5t196.5 43h86v-125q-82 0 -120 -12t-52.5 -46t-14.5 -101q0 -166 -11 -244t-49 -118t-122 -60q80 -23 118 -61t50 -110.5t12 -219.5q0 -86 11.5 -124t49.5 -52.5t128 -14.5v-125h-84q-137 0 -198.5 44 t-76 117t-14.5 218q0 143 -34 203.5t-136 60.5z" />
<glyph unicode="|" horiz-adv-x="350" d="M92 -287v1512h166v-1512h-166z" />
<glyph unicode="}" horiz-adv-x="712" d="M115 -37q88 0 126 14.5t49 50t11 122.5q0 147 13.5 221.5t51 112.5t117.5 61q-84 20 -121.5 60t-49 118t-11.5 244q0 70 -13.5 102.5t-52 44.5t-120.5 12v125h86q137 0 197.5 -44t74.5 -116.5t14 -216.5q0 -143 34 -204.5t136 -61.5v-127q-102 0 -136 -60.5t-34 -203.5 q0 -145 -13 -218t-74.5 -117t-198.5 -44h-86v125z" />
<glyph unicode="~" horiz-adv-x="1107" d="M150 477q8 111 67 167t150 56q51 0 95 -14t107 -45q53 -27 89 -39t71 -12q82 0 94 88h138q-8 -109 -69 -166t-151 -57q-47 0 -93 15t-107 44q-53 25 -90 38t-72 13q-84 0 -92 -88h-137z" />
<glyph unicode="&#xa2;" horiz-adv-x="952" d="M47 412q0 119 50 212t140.5 147t202.5 60v160h119v-170q102 -25 158 -96v88h151v-307h-139q-14 72 -57 118t-113 58v-545q76 6 132.5 38t111.5 89l71 -123q-122 -141 -315 -157v-164h-119v162q-176 18 -284.5 136t-108.5 294zM248 420q0 -105 52 -177.5t140 -97.5v533 q-88 -20 -140 -90t-52 -168z" />
<glyph unicode="&#xa3;" horiz-adv-x="1089" d="M76 172q0 84 58.5 142.5t156.5 58.5q86 0 172 -56q-4 59 -27.5 111.5t-64.5 114.5h-232v112h158q-61 104 -61 203q0 154 101 241t275 87q184 0 276.5 -86t92.5 -240h-178q0 88 -43 137.5t-133 49.5q-84 0 -133.5 -51.5t-49.5 -141.5t58 -199h387v-112h-328 q29 -57 45.5 -108.5t16.5 -106.5q0 -61 -19 -117q84 -63 158 -64q133 0 133 154h137v-14q0 -143 -63.5 -223t-186.5 -80q-127 0 -241 106q-45 -51 -105.5 -80.5t-132.5 -29.5q-102 0 -164.5 54t-62.5 138zM197 170q0 -43 28.5 -67.5t73.5 -24.5q49 0 86 27.5t57 78.5 q-37 37 -71.5 57.5t-71.5 20.5q-47 0 -74.5 -24.5t-27.5 -67.5z" />
<glyph unicode="&#xa5;" horiz-adv-x="1318" d="M25 1020v143h528v-143h-139l274 -402l264 402h-139v143h481v-143h-143l-344 -502h240v-98h-269v-2h269v-101h-269v-174h158v-143h-543v143h158v174h-279v101h279v2h-279v98h248l-354 502h-141z" />
<glyph unicode="&#xa8;" horiz-adv-x="1073" d="M205 1061q0 51 33 80.5t84 29.5t83 -29.5t32 -80.5t-32 -81t-83 -30t-84 30t-33 81zM637 1061q0 51 32 80.5t83 29.5t84 -29.5t33 -80.5t-33 -81t-84 -30t-83 30t-32 81z" />
<glyph unicode="&#xa9;" horiz-adv-x="1531" d="M121 598q0 180 83 322.5t230.5 222.5t331.5 80t331.5 -80t230.5 -222.5t83 -322.5q0 -178 -83 -321.5t-230.5 -224.5t-331.5 -81t-331.5 81t-230.5 224.5t-83 321.5zM256 596q0 -150 65.5 -267.5t181 -185t263.5 -67.5q145 0 262 67.5t182.5 185t65.5 267.5t-65.5 269.5 t-182.5 187t-262 67.5q-147 0 -263 -67.5t-181.5 -187.5t-65.5 -269zM428 598q0 102 46 181t124 121t170 42q63 0 116.5 -22.5t80.5 -61.5v70h100v-230h-96q-14 68 -64.5 108t-122.5 40q-94 0 -160.5 -66.5t-66.5 -179.5t63.5 -183.5t161.5 -70.5q63 0 123 30t98 81l74 -60 q-43 -68 -125 -107.5t-174 -39.5q-100 0 -179 44t-124 123t-45 181z" />
<glyph unicode="&#xab;" horiz-adv-x="1017" d="M76 584l295 417h151l-217 -415l217 -418h-151zM485 584l297 417h150l-217 -415l217 -418h-150z" />
<glyph unicode="&#xad;" d="M109 412v139h518v-139h-518z" />
<glyph unicode="&#xae;" horiz-adv-x="1531" d="M125 596q0 174 79 315.5t223 223.5t333 82q188 0 332.5 -82t223.5 -223.5t79 -315.5t-79 -314.5t-223.5 -222.5t-332.5 -82q-189 0 -333 82t-223 222.5t-79 314.5zM256 594q0 -143 62.5 -260t176 -184.5t265.5 -67.5q149 0 263 67.5t176.5 184.5t62.5 260 q0 145 -62.5 263t-176.5 186.5t-263 68.5q-152 0 -265.5 -68.5t-176 -186.5t-62.5 -263zM473 877v65h324q100 0 158.5 -47t58.5 -127q0 -63 -42 -108.5t-114 -59.5l139 -248h93v-65h-158l-164 305h-109v-240h86v-65h-270v65h88v525h-90zM659 657h136q57 0 90 30t33 81 t-33 80t-86 29h-140v-220z" />
<glyph unicode="&#xb4;" horiz-adv-x="720" d="M205 967l102 317h211l-190 -317h-123z" />
<glyph unicode="&#xb8;" horiz-adv-x="749" d="M205 -268q63 -23 114 -23q78 0 78 55q0 59 -118 66l67 170h82l-33 -117q76 -10 113 -46t37 -87q0 -66 -45 -97.5t-117 -31.5q-88 0 -178 43v68z" />
<glyph unicode="&#xbb;" horiz-adv-x="999" d="M96 168l217 420l-217 413h150l297 -415l-297 -418h-150zM506 168l219 420l-219 413h151l297 -415l-297 -418h-151z" />
<glyph unicode="&#x2c6;" horiz-adv-x="964" d="M205 928l172 334h210l170 -334h-139l-137 250l-137 -250h-139z" />
<glyph unicode="&#x2da;" horiz-adv-x="753" d="M205 1059q0 72 46 117t126 45t126 -45.5t46 -116.5q0 -72 -47 -118t-125 -46t-125 46t-47 118zM285 1059q0 -39 24.5 -64.5t67.5 -25.5q41 0 65.5 25.5t24.5 64.5q0 41 -23.5 65.5t-66.5 24.5t-67.5 -24.5t-24.5 -65.5z" />
<glyph unicode="&#x2dc;" horiz-adv-x="1028" d="M205 973q8 113 56 166t124 53q29 0 59.5 -9t59 -20.5t39.5 -15.5q78 -37 114 -37q33 0 52.5 17.5t27.5 58.5h86q-8 -106 -52 -164.5t-122 -58.5q-37 0 -73.5 12t-92.5 35q-86 35 -116 34q-59 0 -72 -71h-90z" />
<glyph unicode="&#x2000;" horiz-adv-x="682" />
<glyph unicode="&#x2001;" horiz-adv-x="1365" />
<glyph unicode="&#x2002;" horiz-adv-x="682" />
<glyph unicode="&#x2003;" horiz-adv-x="1365" />
<glyph unicode="&#x2004;" horiz-adv-x="455" />
<glyph unicode="&#x2005;" horiz-adv-x="341" />
<glyph unicode="&#x2006;" horiz-adv-x="227" />
<glyph unicode="&#x2007;" horiz-adv-x="227" />
<glyph unicode="&#x2008;" horiz-adv-x="170" />
<glyph unicode="&#x2009;" horiz-adv-x="273" />
<glyph unicode="&#x200a;" horiz-adv-x="75" />
<glyph unicode="&#x2010;" d="M109 412v139h518v-139h-518z" />
<glyph unicode="&#x2011;" d="M109 412v139h518v-139h-518z" />
<glyph unicode="&#x2012;" d="M109 412v139h518v-139h-518z" />
<glyph unicode="&#x2013;" horiz-adv-x="1325" d="M0 412v139h1325v-139h-1325z" />
<glyph unicode="&#x2014;" horiz-adv-x="1568" d="M0 412v139h1569v-139h-1569z" />
<glyph unicode="&#x2018;" horiz-adv-x="440" d="M133 758v178q0 143 54.5 215t174.5 72v-86q-61 -10 -86.5 -45t-25.5 -119h110v-215h-227z" />
<glyph unicode="&#x2019;" horiz-adv-x="440" d="M78 756v86q61 10 87 45t26 119h-111v215h227v-178q0 -143 -54 -215t-175 -72z" />
<glyph unicode="&#x201a;" horiz-adv-x="440" d="M78 -164q61 10 87 45t26 119h-111v215h227v-178q0 -143 -54 -215t-175 -72v86z" />
<glyph unicode="&#x201c;" horiz-adv-x="755" d="M133 758v178q0 143 54.5 215t174.5 72v-86q-61 -10 -86.5 -45t-25.5 -119h110v-215h-227zM449 758v178q0 143 54 215t175 72v-86q-61 -10 -87 -45t-26 -119h111v-215h-227z" />
<glyph unicode="&#x201d;" horiz-adv-x="755" d="M78 756v86q61 10 87 45t26 119h-111v215h227v-178q0 -143 -54 -215t-175 -72zM395 756v86q61 10 87 45t26 119h-111v215h227v-178q0 -143 -54 -215t-175 -72z" />
<glyph unicode="&#x201e;" horiz-adv-x="755" d="M78 -164q61 10 87 45t26 119h-111v215h227v-178q0 -143 -54 -215t-175 -72v86zM395 -164q61 10 87 45t26 119h-111v215h227v-178q0 -143 -54 -215t-175 -72v86z" />
<glyph unicode="&#x2022;" horiz-adv-x="563" d="M76 506q0 80 58.5 138t148.5 58q92 0 148 -55t56 -141q0 -84 -57 -141.5t-147 -57.5q-88 0 -147.5 60.5t-59.5 138.5z" />
<glyph unicode="&#x2026;" horiz-adv-x="1263" d="M123 0v213h219v-213h-219zM502 0v213h219v-213h-219zM881 0v213h219v-213h-219z" />
<glyph unicode="&#x202f;" horiz-adv-x="273" />
<glyph unicode="&#x2039;" horiz-adv-x="665" d="M63 584l310 417h151l-219 -415l219 -418h-151z" />
<glyph unicode="&#x203a;" horiz-adv-x="665" d="M152 168l217 420l-217 413h149l309 -413l-309 -420h-149z" />
<glyph unicode="&#x205f;" horiz-adv-x="341" />
<glyph unicode="&#x20ac;" horiz-adv-x="1402" d="M-18 410v102h114q-4 45 -4 70q0 41 2 61h-112v100h129q47 201 206.5 321t389.5 120q129 0 230 -45t161 -123v147h159v-372l-139 -5q-61 123 -152.5 179.5t-224.5 56.5q-145 0 -248.5 -76t-144.5 -203h531v-100h-553q-2 -18 -2 -57q0 -25 4 -74h551v-102h-527 q43 -127 144.5 -199t236.5 -72t233.5 66.5t143.5 206.5l174 -72q-63 -182 -209.5 -271t-355.5 -92q-229 2 -391 118t-215 315h-131z" />
<glyph unicode="&#x2122;" horiz-adv-x="1777" d="M141 897v256h576v-256h-96v168h-129v-481h92v-86h-312v86h97v481h-129v-168h-99zM811 498v86h80v483h-80v86h227l185 -438l184 438h235v-86h-81v-483h81v-86h-278v86h82v420l-201 -478h-49l-207 478v-420h80v-86h-258z" />
<glyph unicode="&#x25fc;" horiz-adv-x="808" d="M0 0v809h809v-809h-809z" />
</font>
</defs>
</svg>
