<?xml version="1.0" standalone="no"?>
<!DOCTYPE svg PUBLIC "-//W3C//DTD SVG 1.1//EN" "http://www.w3.org/Graphics/SVG/1.1/DTD/svg11.dtd" >
<svg xmlns="http://www.w3.org/2000/svg" xmlns:xlink="http://www.w3.org/1999/xlink" version="1.1">
<metadata></metadata>
<defs>
<font id="rokkittextrabold" horiz-adv-x="784" >
<font-face units-per-em="2048" ascent="1638" descent="-410" />
<missing-glyph horiz-adv-x="647" />
<glyph horiz-adv-x="0" />
<glyph unicode="&#xd;" horiz-adv-x="647" />
<glyph horiz-adv-x="0" />
<glyph horiz-adv-x="0" />
<glyph unicode=" "  horiz-adv-x="647" />
<glyph unicode="&#x09;" horiz-adv-x="647" />
<glyph unicode="&#xa0;" horiz-adv-x="647" />
<glyph unicode="!" horiz-adv-x="446" d="M61 121q0 59 42 98t110 39t110 -39t42 -98q0 -61 -42 -100t-110 -39t-110 38.5t-42 100.5zM72 856v371h268v-371l-53 -504h-162z" />
<glyph unicode="&#x22;" horiz-adv-x="768" d="M90 1335h252l-37 -461h-176zM426 1335h252l-37 -461h-176z" />
<glyph unicode="#" horiz-adv-x="1300" d="M68 297l30 160h215l54 266h-209l30 162h215l56 270h209l-58 -270h209l55 270h209l-57 -270h225l-28 -162h-232l-53 -266h219l-29 -160h-227l-63 -297h-205l59 297h-209l-61 -297h-207l59 297h-206zM520 457h209l53 266h-207z" />
<glyph unicode="$" horiz-adv-x="1249" d="M102 852q0 158 108.5 255t287.5 97q27 0 71 -4v154h109v-176q104 -33 174 -107v113h215v-346h-197q-27 55 -76 98t-116 59v-241l57 -13q205 -39 298 -129t93 -258q0 -174 -110.5 -274t-298.5 -100q-27 0 -39 2v-156h-109v172q-70 16 -129 50t-98 79v-127h-229v403h204 q37 -84 101.5 -141t150.5 -76v265l-90 18q-190 43 -283.5 135t-93.5 248zM446 901q0 -45 30 -73.5t93 -49.5v230q-59 -2 -91 -31t-32 -76zM678 176q59 6 92 36t33 83t-29 83t-96 50v-252z" />
<glyph unicode="%" horiz-adv-x="1740" d="M113 903q0 135 87 218t228 83t229 -83t88 -218q0 -137 -88 -222t-229 -85t-228 85t-87 222zM307 903q0 -74 32 -118t85 -44q57 0 90 43t33 119q0 74 -31 117t-84 43q-57 0 -91 -43t-34 -117zM410 0l774 1186h145l-770 -1186h-149zM993 285q0 135 88 219t228 84 q143 0 231 -84t88 -219q0 -137 -88 -221t-231 -84q-140 0 -228 83.5t-88 221.5zM1192 285q0 -72 29.5 -117t81.5 -45q61 0 95 43t34 119q0 74 -32 116.5t-87 42.5t-88 -43t-33 -116z" />
<glyph unicode="&#x26;" horiz-adv-x="1550" d="M119 350q0 111 77.5 187.5t219.5 140.5q-45 55 -68.5 110.5t-23.5 131.5q0 68 43 126t124.5 94t194.5 36q102 0 177 -36t114 -92.5t39 -117.5q0 -88 -52.5 -156.5t-177.5 -130.5l183 -194q37 49 58.5 112.5t45.5 155.5h328v-180l-144 -2q-47 -135 -137 -252l97 -97h186 v-186h-383l-86 109q-152 -131 -369 -132q-141 0 -241.5 52.5t-152.5 137.5t-52 183zM422 358q0 -35 20.5 -76.5t62.5 -71.5t99 -30q60 0 103 18.5t84 65.5l-248 271q-121 -63 -121 -177zM600 940q0 -41 15.5 -73.5t46.5 -73.5q63 28 85.5 59t22.5 78q0 43 -22.5 65.5 t-61.5 22.5q-86 0 -86 -78z" />
<glyph unicode="'" horiz-adv-x="430" d="M90 1335h252l-37 -461h-176z" />
<glyph unicode="(" horiz-adv-x="733" d="M115 514q0 252 142 446.5t388 274.5l12 -154q-248 -174 -247 -567q0 -391 245 -567l-10 -152q-246 80 -388 273.5t-142 445.5z" />
<glyph unicode=")" horiz-adv-x="733" d="M90 1081l10 154q246 -80 388.5 -274.5t142.5 -446.5t-142.5 -445.5t-388.5 -273.5l-8 152q246 176 246 567q0 393 -248 567z" />
<glyph unicode="*" horiz-adv-x="919" d="M72 788l63 230l297 -162l-96 324h262l-98 -324l301 162l59 -230l-311 -14l254 -207l-215 -153l-123 323l-119 -323l-215 153l256 207z" />
<glyph unicode="+" horiz-adv-x="1214" d="M158 496v168h358v372h182v-372h357v-168h-357v-371h-182v371h-358z" />
<glyph unicode="," horiz-adv-x="563" d="M125 0v256h274v-205q0 -166 -63.5 -243.5t-208.5 -77.5v102q61 2 90 41t29 127h-121z" />
<glyph unicode="-" d="M104 391v187h576v-187h-576z" />
<glyph unicode="." horiz-adv-x="559" d="M123 0v254h272v-254h-272z" />
<glyph unicode="/" horiz-adv-x="815" d="M20 -287l588 1532h252l-588 -1532h-252z" />
<glyph unicode="0" horiz-adv-x="1181" d="M74 594q0 289 135 449.5t381 160.5t380 -159.5t134 -450.5t-134 -454t-380 -163t-381 163t-135 454zM393 594q0 -193 48 -288t149 -95q100 0 148 94t48 289q0 190 -48 284.5t-148 94.5t-148.5 -94.5t-48.5 -284.5z" />
<glyph unicode="1" horiz-adv-x="839" d="M70 0v195h204v776l-196 -25l-8 176l538 62v-989h201v-195h-739z" />
<glyph unicode="2" horiz-adv-x="1089" d="M88 827q0 106 51 191.5t154.5 135.5t251.5 50q197 0 310.5 -89t113.5 -238q0 -121 -76 -226.5t-262 -273.5l-189 -176h342v182h197v-383h-891v188l363 340q115 109 163 175.5t48 138.5q0 66 -35 104.5t-105 38.5q-78 0 -121 -50t-43 -132q0 -51 13 -113h-267 q-18 66 -18 137z" />
<glyph unicode="3" horiz-adv-x="1126" d="M61 295l248 100q29 -94 90.5 -142t143.5 -48q76 0 122 38t46 105q0 168 -238 168v172q109 0 167 42t58 120q0 61 -38.5 98t-108.5 37q-80 0 -130 -49t-67 -135l-256 86q33 156 161 236.5t319 80.5q201 0 312 -88t111 -231q0 -98 -54 -168t-146 -103q106 -32 166.5 -105 t60.5 -185q0 -162 -128 -254.5t-339 -92.5q-199 0 -323.5 82t-176.5 236z" />
<glyph unicode="4" horiz-adv-x="1161" d="M61 496l564 688h290v-660h168v-166h-168v-165h144v-193h-653v193h206v165h-526zM301 524h311v391z" />
<glyph unicode="5" horiz-adv-x="1157" d="M102 150l117 190q82 -63 157 -96t165 -33q100 0 155.5 49t55.5 135q0 78 -48.5 124t-132.5 46q-113 0 -202 -86l-209 78l16 627h815v-312h-200v119h-400l-8 -278q117 70 274 69q185 0 286 -103.5t101 -279.5q0 -133 -62 -228t-168.5 -144.5t-240.5 -49.5q-258 0 -471 173 z" />
<glyph unicode="6" horiz-adv-x="1112" d="M90 395q0 121 43 227.5t154 266.5l276 403l217 -143l-243 -356q33 8 75 8q193 0 306.5 -109.5t113.5 -292.5q0 -129 -60.5 -224t-168 -146.5t-248.5 -51.5q-213 0 -339 113t-126 305zM391 401q0 -94 45 -149t127 -55t126 55t44 151q0 94 -44 147.5t-124 53.5 q-78 0 -126 -54t-48 -149z" />
<glyph unicode="7" horiz-adv-x="1046" d="M51 811v373h914v-185l-381 -999h-320l383 989h-375v-178h-221z" />
<glyph unicode="8" horiz-adv-x="1126" d="M86 313q0 100 55.5 174t153.5 115q-170 92 -170 264q0 154 122 245t318 93q197 0 316.5 -84t119.5 -227q0 -195 -184 -283q225 -84 225 -278q0 -104 -61 -184t-171 -125.5t-251 -45.5q-143 0 -250.5 42t-165 119t-57.5 175zM377 317q0 -84 48 -135t130 -51q78 0 122 51 t44 135q0 82 -52.5 130.5t-174.5 80.5q-53 -23 -85 -78t-32 -133zM442 872q0 -76 45 -121.5t142 -74.5q94 76 94 211q0 70 -35 110.5t-102 40.5q-70 0 -107 -45t-37 -121z" />
<glyph unicode="9" horiz-adv-x="1112" d="M78 782q0 129 60.5 224.5t168 146.5t248.5 51q215 0 341 -111.5t126 -304.5q0 -121 -44 -226t-155 -269l-274 -404l-217 144l243 356q-33 -8 -75 -8q-195 0 -308.5 110.5t-113.5 290.5zM377 778q0 -94 44 -147t124 -53t128 54t48 148t-45 149.5t-127 55.5t-127 -55.5 t-45 -151.5z" />
<glyph unicode=":" horiz-adv-x="559" d="M123 0v254h272v-254h-272zM123 565v254h272v-254h-272z" />
<glyph unicode=";" horiz-adv-x="563" d="M123 565v254h272v-254h-272zM125 0v256h274v-205q0 -166 -63.5 -243.5t-208.5 -77.5v102q61 2 90 41t29 127h-121z" />
<glyph unicode="&#x3c;" horiz-adv-x="1095" d="M158 498v164l821 389v-199l-610 -272l610 -273v-198z" />
<glyph unicode="=" horiz-adv-x="1200" d="M158 303v168h884v-168h-884zM158 694v168h884v-168h-884z" />
<glyph unicode="&#x3e;" horiz-adv-x="1095" d="M117 109v198l610 273l-610 272v199l821 -389v-164z" />
<glyph unicode="?" horiz-adv-x="1052" d="M51 836q2 207 133 308t342 101q203 0 316.5 -89t113.5 -238q0 -92 -44 -158t-136 -137q-98 -74 -130 -118t-32 -120v-33h-254v33q0 98 38 159.5t128 131.5q72 55 100.5 94t28.5 98q0 70 -41 108t-116 38q-88 0 -134.5 -45t-46.5 -133h-266zM336 121q0 59 42 98t109 39 q68 0 110 -39t42 -98q0 -61 -42 -100t-110 -39q-67 0 -109 38.5t-42 100.5z" />
<glyph unicode="@" horiz-adv-x="1470" d="M106 557q0 170 81 324.5t234.5 250t362.5 95.5q195 0 325 -75t191.5 -195.5t61.5 -258.5q0 -125 -51 -237.5t-140.5 -180t-199.5 -63.5q-94 6 -97 129q-41 -63 -97 -96t-122 -33q-72 0 -133 37t-99 107.5t-38 168.5q0 106 42 203.5t125 160t198 62.5q68 0 120 -34.5 t74 -98.5l25 117h133l-103 -469q-12 -61 -12 -98q0 -41 19 -45q39 -6 95 40t98 133t42 197q0 111 -54 207t-158.5 153.5t-250.5 57.5q-154 0 -276.5 -71.5t-192 -199.5t-69.5 -290q0 -154 64.5 -268.5t189 -178t301.5 -63.5q223 0 368 113l70 -82q-178 -137 -438 -137 q-226 0 -380.5 86t-231.5 227t-77 305zM518 528q0 -86 42 -145t120 -59q61 0 113.5 50t82 129t29.5 163t-45 133t-123 49q-66 0 -116 -47t-76.5 -121t-26.5 -152z" />
<glyph unicode="A" horiz-adv-x="1495" d="M45 0v209h121l289 764h-115v211h815v-211h-117l293 -764h119v-209h-602v209h131l-68 209h-366l-68 -209h115v-209h-547zM608 614h244l-113 359h-12z" />
<glyph unicode="B" horiz-adv-x="1345" d="M96 0v209h117v764h-117v211h684q219 0 328 -77t109 -212q0 -104 -55.5 -163.5t-172.5 -86.5q289 -47 289 -309q0 -164 -121 -250t-364 -86h-697zM561 211h162q197 0 197 160q0 157 -197 157h-2h-160v-317zM561 723h146q159 0 159 127q0 63 -41 93t-127 30h-137v-250z" />
<glyph unicode="C" horiz-adv-x="1464" d="M74 590q0 184 82 323.5t226 215t327 75.5q127 0 227 -39t162 -110v129h229v-422h-197q-53 102 -135 153.5t-200 51.5q-168 0 -265.5 -102.5t-97.5 -270.5q0 -170 92 -273.5t244 -103.5q256 0 317 270l273 -94q-43 -190 -203 -301.5t-407 -111.5q-195 0 -347.5 73.5 t-239.5 211.5t-87 325z" />
<glyph unicode="D" horiz-adv-x="1499" d="M96 0v209h119v764h-119v211h703q203 0 344 -78t211.5 -211t70.5 -299q0 -274 -160.5 -435t-463.5 -161h-705zM561 209h176q328 0 328 387q0 180 -79 278.5t-247 98.5h-178v-764z" />
<glyph unicode="E" horiz-adv-x="1333" d="M96 0v209h117v764h-117v211h1121v-410h-216v199h-440v-271h184v119h173v-432h-173v119h-184v-297h449v219h215v-430h-1129z" />
<glyph unicode="F" horiz-adv-x="1249" d="M96 0v209h117v764h-117v211h1114v-418h-215v207h-434v-268h180v114h172v-430h-172v119h-180v-299h131v-209h-596z" />
<glyph unicode="G" horiz-adv-x="1501" d="M74 588q0 182 79.5 321.5t225 217t332.5 77.5q131 0 231 -39t164 -110v129h231v-424h-198q-53 102 -137 154.5t-205 52.5q-166 0 -263.5 -99.5t-97.5 -275.5q0 -174 89 -274.5t241 -100.5q121 2 198.5 56.5t92.5 160.5h-205v211h537v-84q0 -190 -82 -321t-225.5 -195.5 t-329.5 -64.5q-201 0 -354.5 75.5t-238.5 214t-85 318.5z" />
<glyph unicode="H" horiz-adv-x="1531" d="M96 0v209h117v764h-117v211h582v-211h-117v-273h412v273h-119v211h582v-211h-119v-764h119v-209h-582v209h119v295h-412v-295h117v-209h-582z" />
<glyph unicode="I" horiz-adv-x="786" d="M102 0v209h117v764h-117v211h582v-211h-119v-764h119v-209h-582z" />
<glyph unicode="J" horiz-adv-x="792" d="M31 -43h73q84 0 119 45t35 141v846h-131v195h592v-195h-115v-825q0 -240 -101.5 -350.5t-328.5 -110.5h-143v254z" />
<glyph unicode="K" horiz-adv-x="1429" d="M96 0v209h117v764h-117v211h584v-211h-119v-342l348 342h-102v211h541v-211h-95l-366 -363l391 -401h94v-209h-569v209h90l-332 352v-352h119v-209h-584z" />
<glyph unicode="L" horiz-adv-x="1163" d="M96 0v209h117v780h-117v195h582v-195h-117v-780h324v313h231v-522h-1020z" />
<glyph unicode="M" horiz-adv-x="1849" d="M96 0v209h117v764h-117v211h582l262 -639l254 639h559v-211h-117v-764h117v-209h-561v209h115v665l-332 -827h-152l-336 827v-665h115v-209h-506z" />
<glyph unicode="N" horiz-adv-x="1536" d="M98 0v209h119v764h-119v211h518l498 -750v539h-135v211h481v-211h-117v-973h-346l-557 834v-625h135v-209h-477z" />
<glyph unicode="O" horiz-adv-x="1492" d="M74 588q0 180 84 320.5t235.5 218t351.5 77.5q201 0 353.5 -77.5t235.5 -218t83 -320.5t-83 -318.5t-235.5 -214t-353.5 -75.5q-200 0 -352.5 75.5t-235.5 214t-83 318.5zM436 594q0 -168 84 -272.5t225 -104.5q144 0 228 105.5t84 271.5q0 168 -83 270.5t-224 102.5 q-143 0 -228.5 -101.5t-85.5 -271.5z" />
<glyph unicode="P" horiz-adv-x="1290" d="M96 0v209h117v764h-117v211h643q252 0 379 -85t127 -272q0 -190 -120.5 -278t-356.5 -88h-129v209h82q80 0 124 40t44 113q0 74 -41 112t-119 38h-168v-764h131v-209h-596z" />
<glyph unicode="Q" horiz-adv-x="1490" d="M74 588q0 180 84 320.5t235.5 218t351.5 77.5q201 0 353.5 -77.5t235.5 -218t83 -320.5q0 -238 -140 -397.5t-382 -198.5q27 -72 95.5 -107t160.5 -35q96 0 188 33v-213q-92 -37 -204 -37q-389 1 -541 359q-240 39 -380 199.5t-140 396.5zM436 594q0 -166 84 -271.5 t225 -105.5q144 0 228 105.5t84 271.5q0 168 -83 270.5t-224 102.5q-143 0 -228.5 -101.5t-85.5 -271.5z" />
<glyph unicode="R" horiz-adv-x="1443" d="M96 0v209h117v764h-117v211h715q227 0 359.5 -85t132.5 -268q0 -236 -242 -311l194 -309h119v-211h-375l-272 479h-86v211h145q82 0 122 41t40 111q0 59 -40 95t-113 36h-234v-764h111v-209h-576z" />
<glyph unicode="S" horiz-adv-x="1210" d="M104 852q0 158 109 255t287 97q227 0 354 -133v113h215v-346h-197q-35 72 -106.5 121t-177.5 49q-68 0 -103.5 -28t-35.5 -79q0 -57 50 -90t167 -55l71 -15q205 -39 298 -129t93 -258q0 -174 -110.5 -274t-298.5 -100q-106 0 -212 38.5t-163 108.5v-127h-229v403h204 q43 -104 132.5 -165.5t205.5 -61.5q70 0 109 31t39 88q0 63 -42 95t-147 52l-135 27q-190 43 -283.5 135t-93.5 248z" />
<glyph unicode="T" horiz-adv-x="1314" d="M53 745v439h1209v-439h-224v234h-207v-770h134v-209h-613v209h133v770h-209v-234h-223z" />
<glyph unicode="U" horiz-adv-x="1419" d="M66 973v211h589v-211h-127v-543q0 -115 57.5 -176t164.5 -61q111 0 170 61t59 176v543h-98v211h477v-211h-117v-539q0 -223 -133 -340t-387 -117q-264 0 -401.5 117t-137.5 338v541h-116z" />
<glyph unicode="V" horiz-adv-x="1386" d="M31 973v211h606v-211h-139l235 -596l228 596h-136v211h531v-211h-107l-415 -973h-242l-455 973h-106z" />
<glyph unicode="W" horiz-adv-x="1869" d="M35 973v211h520v-211h-113l156 -514l246 688h213l239 -688l168 514h-127v211h500v-211h-108l-318 -973h-219l-250 680l-250 -680h-217l-334 973h-106z" />
<glyph unicode="X" horiz-adv-x="1400" d="M59 0v209h97l319 385l-303 381h-94v209h561v-209h-90l166 -225l170 225h-92v209h528v-209h-98l-301 -363l323 -403h98v-209h-565v209h92l-184 250l-190 -250h94v-209h-531z" />
<glyph unicode="Y" horiz-adv-x="1378" d="M23 973v211h622v-211h-127l217 -324l215 324h-129v211h535v-211h-119l-367 -531v-233h136v-209h-617v209h135v233l-385 531h-116z" />
<glyph unicode="Z" horiz-adv-x="1212" d="M82 0v166l569 813h-332v-227h-223v432h1022v-164l-573 -817h362v254h230v-457h-1055z" />
<glyph unicode="[" horiz-adv-x="890" d="M303 -231v1480h424v-149h-172v-1176h172v-155h-424z" />
<glyph unicode="\" horiz-adv-x="712" d="M23 1245h249l486 -1532h-252z" />
<glyph unicode="]" horiz-adv-x="890" d="M162 -76h174v1176h-174v149h426v-1480h-426v155z" />
<glyph unicode="^" horiz-adv-x="1196" d="M84 344l401 821h220l403 -821h-244l-268 606l-266 -606h-246z" />
<glyph unicode="_" horiz-adv-x="1050" d="M12 -86h1026v-127h-1026v127z" />
<glyph unicode="`" horiz-adv-x="780" d="M205 1305h282l88 -355h-174z" />
<glyph unicode="a" horiz-adv-x="989" d="M63 219q0 131 92.5 192.5t233.5 61.5q96 0 180 -24v38q0 154 -155 154q-111 0 -271 -70l-67 174q201 94 411 95q180 0 279.5 -88t99.5 -246v-326h99v-180h-349l-22 72q-113 -92 -258 -92q-125 0 -199 65.5t-74 173.5zM334 238q0 -48 27.5 -74.5t78.5 -26.5q72 0 129 49 v138q-55 18 -110 18q-53 0 -89 -25.5t-36 -78.5z" />
<glyph unicode="b" horiz-adv-x="1093" d="M29 0v180h106v844h-106v180h409v-454q104 90 250 90q168 0 267.5 -115t99.5 -305q0 -201 -105.5 -320.5t-277.5 -119.5q-145 0 -250 79l-6 -59h-387zM438 244q61 -39 127 -39q80 0 128 56t48 149q0 98 -47 151t-129 53q-68 0 -127 -47v-323z" />
<glyph unicode="c" horiz-adv-x="933" d="M39 420q0 125 53 221t145.5 148.5t206.5 52.5q145 0 226 -80v59h200v-340h-188q-20 162 -176 162q-84 0 -134 -56.5t-50 -152.5q0 -106 62 -167.5t167 -61.5q143 0 252 94l86 -182q-154 -137 -387 -137q-137 0 -241.5 55t-163 154.5t-58.5 230.5z" />
<glyph unicode="d" horiz-adv-x="1085" d="M39 414q0 127 48 223t134 149.5t195 53.5q143 0 241 -84v268h-129v180h433v-1024h100v-180h-381l-4 57q-112 -77 -252 -77h-4q-113 0 -199 53t-134 151.5t-48 229.5zM352 406q0 -91 50.5 -146t127.5 -55q72 0 127 37v329q-55 43 -129 43q-82 0 -129 -54t-47 -154z" />
<glyph unicode="e" horiz-adv-x="933" d="M37 410q0 127 57.5 225t159.5 152.5t231 54.5q190 0 299 -117t109 -307v-56h-565q18 -78 76.5 -117.5t144.5 -39.5q141 0 254 88l84 -180q-72 -63 -169 -99.5t-210 -36.5q-215 0 -343 115t-128 318zM324 492h288q0 72 -35.5 112.5t-101.5 40.5q-63 0 -102 -40t-49 -113z " />
<glyph unicode="f" horiz-adv-x="649" d="M37 0v180h108v461h-108v178h108v105q0 152 95.5 245t281.5 93q307 0 340 -256l-231 -41q-2 57 -22.5 87.5t-65.5 30.5q-47 0 -69.5 -35.5t-22.5 -117.5v-111h198v-178h-198v-461h143v-180h-557z" />
<glyph unicode="g" horiz-adv-x="1095" d="M43 410q0 197 104.5 313.5t284.5 116.5q74 0 138.5 -27t109.5 -72l2 78h387v-178h-100v-598q0 -217 -120 -329.5t-331 -112.5q-166 0 -366 65l49 187q143 -47 262 -48q100 0 151.5 50.5t51.5 146.5v55q-49 -37 -104.5 -55t-127.5 -18q-180 0 -285.5 114.5t-105.5 311.5z M356 408q0 -97 49.5 -152t129.5 -55q70 0 131 37l-2 340q-63 45 -134 45q-80 0 -127 -56.5t-47 -158.5z" />
<glyph unicode="h" horiz-adv-x="1105" d="M23 0v180h104v844h-102v180h407v-448q133 84 268 84q129 0 204 -80t75 -205v-375h106v-180h-495v180h86v326q0 61 -29 95t-82 34q-61 0 -133 -39v-416h86v-180h-495z" />
<glyph unicode="i" horiz-adv-x="573" d="M33 0v180h106v461h-106v178h411v-639h105v-180h-516zM90 1141q0 76 49 123t129 47t128 -46t48 -124v-6q0 -72 -47 -117q-49 -47 -129 -47t-129 47t-49 123z" />
<glyph unicode="j" horiz-adv-x="610" d="M-12 -113h78q86 0 120.5 37t34.5 127v574h-151v194h456v-729q0 -223 -105.5 -325.5t-326.5 -102.5h-106v225zM166 1143q0 78 48 124t128 46q82 0 130 -46t48 -124t-48 -124t-130 -46q-80 0 -128 46t-48 124z" />
<glyph unicode="k" horiz-adv-x="1095" d="M33 0v180h106v844h-106v180h403v-768l266 205h-104v178h465v-178h-84l-246 -192l250 -269h88v-180h-287l-348 401v-221h101v-180h-504z" />
<glyph unicode="l" horiz-adv-x="565" d="M33 0v180h106v844h-106v180h405v-1024h101v-180h-506z" />
<glyph unicode="m" horiz-adv-x="1669" d="M33 0v180h106v461h-104v178h387l4 -71q137 92 283 92q82 0 142 -33t93 -90q162 123 324 123q131 0 205.5 -79t74.5 -206v-375h105v-180h-496v180h88v326q0 61 -29.5 95t-80.5 34q-72 0 -150 -49q2 -10 2 -33v-373h105v-180h-496v180h88v326q0 61 -28.5 95t-82.5 34 q-59 0 -129 -37v-418h88v-180h-499z" />
<glyph unicode="n" horiz-adv-x="1110" d="M33 0v180h106v461h-106v178h389l4 -74q139 94 283 95q131 0 205.5 -79t74.5 -206v-375h105v-180h-496v180h86v326q0 61 -28.5 95t-80.5 34q-63 0 -131 -39v-416h88v-180h-499z" />
<glyph unicode="o" horiz-adv-x="987" d="M37 412q0 127 57.5 225t160.5 151.5t239 53.5q135 0 238.5 -53.5t160.5 -151.5t57 -225q0 -129 -57 -227.5t-160.5 -153t-238.5 -54.5q-136 0 -239 54.5t-160.5 153t-57.5 227.5zM319 412q1 -96 47 -152q45 -54 122 -53h6h6q74 0 120 53q48 55 48 152q0 94 -47.5 148 t-126.5 54q-82 0 -128.5 -54t-46.5 -148z" />
<glyph unicode="p" horiz-adv-x="1087" d="M25 -162h104v803h-102v178h383l6 -65q117 86 260 86q174 0 273.5 -115t99.5 -309q0 -131 -49.5 -230.5t-135.5 -152.5t-196 -53q-72 0 -132.5 18t-101.5 51v-211h131v-180h-540v180zM434 238q51 -33 121 -33q84 0 132 53t48 152q0 92 -48 148t-126 56q-68 0 -127 -41 v-335z" />
<glyph unicode="q" horiz-adv-x="1097" d="M39 406q0 199 110.5 316.5t290.5 117.5q131 0 242 -80l4 59h385v-178h-104v-805h104v-180h-541v180h134v215q-91 -71 -230 -71h-4q-113 0 -202 53t-139 150.5t-50 222.5zM352 408q0 -97 49.5 -150t130.5 -53q74 0 132 37v329q-61 43 -140 43q-78 0 -125 -56t-47 -150z " />
<glyph unicode="r" horiz-adv-x="839" d="M41 0v180h106v461h-106v178h410v-160q82 178 225 179q77 0 155 -37l-63 -246q-82 43 -168 43q-59 0 -104 -34t-45 -101v-283h116v-180h-526z" />
<glyph unicode="s" horiz-adv-x="933" d="M90 582q0 119 83 188.5t224 69.5q131 0 221 -60v41h191v-258h-178l-10 84q-31 16 -73 27.5t-79 11.5q-45 0 -72.5 -18.5t-27.5 -51.5t24.5 -49t75.5 -28l86 -17q150 -33 221.5 -96.5t71.5 -185.5q0 -123 -85 -191.5t-216 -68.5q-80 0 -148.5 20t-115.5 57v-57h-191v270 h178l6 -75q84 -55 187 -56q49 0 78.5 18.5t29.5 51.5q0 39 -30.5 58.5t-108.5 37.5l-74 14q-145 33 -206.5 92.5t-61.5 170.5z" />
<glyph unicode="t" horiz-adv-x="671" d="M33 641v178h100v266l305 52v-318h185v-178h-185v-346q0 -59 21.5 -84t75.5 -25h94v-186h-230q-264 0 -264 244v397h-102z" />
<glyph unicode="u" horiz-adv-x="1105" d="M20 641v178h408v-508q0 -61 27.5 -94t81.5 -33q63 0 133 43v414h-90v178h393v-639h106v-180h-385l-8 78q-137 -98 -283 -98q-135 0 -207.5 80.5t-72.5 205.5v375h-103z" />
<glyph unicode="v" horiz-adv-x="1046" d="M4 641v178h496v-178h-86l157 -362l156 362h-86v178h401v-178h-77l-308 -641h-262l-309 641h-82z" />
<glyph unicode="w" horiz-adv-x="1456" d="M4 641v178h420v-178h-74l127 -393l129 393h-76v178h400v-178h-76l131 -393l121 393h-76v178h420v-178h-76l-235 -641h-269l-145 414l-147 -414h-273l-227 641h-74z" />
<glyph unicode="x" horiz-adv-x="1052" d="M27 0v180h77l226 236l-209 225h-80v178h438v-178h-61l110 -125l111 125h-61v178h438v-178h-84l-207 -223l227 -238h78v-180h-448v180h71l-127 135l-127 -135h70v-180h-442z" />
<glyph unicode="y" horiz-adv-x="1071" d="M4 641v178h494v-178h-99l170 -365l160 365h-102v178h444v-178h-80l-342 -696q-59 -119 -99 -175.5t-102.5 -86t-171.5 -29.5h-94v221h74q76 0 115 21.5t69 85.5l35 71h-82l-305 588h-84z" />
<glyph unicode="z" horiz-adv-x="931" d="M63 0v150l441 499h-256v-151h-182v321h790v-149l-446 -502h280v174h182v-342h-809z" />
<glyph unicode="{" horiz-adv-x="962" d="M135 420v153q113 0 157 69t44 224q0 127 19.5 194.5t102.5 108.5t263 41h108v-163q-86 0 -130 -13.5t-58 -40t-14 -73.5q0 -178 -15.5 -258t-69 -117t-177.5 -47q125 -14 179 -51t68.5 -114t14.5 -253q0 -49 14 -77t58 -41t130 -13v-164h-106q-180 0 -264 41 t-103.5 108.5t-19.5 196.5q0 154 -44 221.5t-157 67.5z" />
<glyph unicode="|" horiz-adv-x="471" d="M113 -287v1532h245v-1532h-245z" />
<glyph unicode="}" horiz-adv-x="962" d="M166 -51q86 0 129 13t57.5 41t14.5 77q0 176 15 253t69.5 113.5t179.5 51.5q-125 10 -179.5 47t-69.5 116.5t-15 258.5q0 47 -14.5 73.5t-57.5 40t-129 13.5v163h104q182 0 266.5 -42t103.5 -110.5t19 -199.5q0 -152 43 -218.5t158 -66.5v-153q-113 0 -157 -65.5 t-44 -217.5q0 -131 -19 -199.5t-103 -110.5t-267 -42h-104v164z" />
<glyph unicode="~" horiz-adv-x="1171" d="M158 442q8 135 72.5 200t160.5 65q49 0 90 -13.5t107 -42.5q55 -25 93 -37t77 -12q86 0 94 88h162q-8 -135 -74 -199.5t-162 -64.5q-51 0 -96 14.5t-115 42.5q-53 25 -88 36t-67 11q-84 0 -93 -88h-161z" />
<glyph unicode="&#xa2;" horiz-adv-x="933" d="M39 420q0 125 53 221t145.5 148.5t206.5 52.5h7v149h106v-164q68 -20 113 -65v59h200v-340h-188q-16 133 -125 156v-432q141 2 246 94l86 -182q-137 -121 -332 -135v-156h-106v156q-186 16 -299 135t-113 303zM322 434q0 -78 33.5 -132t95.5 -79v412q-59 -16 -94 -69.5 t-35 -131.5z" />
<glyph unicode="&#xa3;" horiz-adv-x="1167" d="M53 188q0 90 62.5 150.5t165.5 60.5q92 0 184 -53q-10 51 -33.5 99.5t-60.5 103.5h-242v131h160q-55 100 -56 197q0 158 105.5 242.5t298.5 84.5q416 0 416 -340h-246q0 160 -127 160q-61 0 -94 -38t-33 -107q0 -88 55 -199h353v-131h-289q47 -104 47 -201 q0 -68 -27 -135q45 -16 92 -16q131 0 131 145h187v-23q0 -158 -73 -248.5t-216 -90.5q-125 0 -235 86q-117 -88 -273 -89q-117 0 -184.5 57.5t-67.5 153.5zM203 182q0 -39 26.5 -61.5t71.5 -22.5q47 0 86 22.5t59 61.5q-47 41 -80.5 61.5t-70.5 20.5q-41 0 -66.5 -21.5 t-25.5 -60.5z" />
<glyph unicode="&#xa5;" horiz-adv-x="1380" d="M20 973v211h623v-211h-127l217 -324l215 324h-129v211h535v-211h-119l-301 -434h225v-199h-291v-131h136v-209h-617v209h135v131h-307v199h238l-316 434h-117z" />
<glyph unicode="&#xa8;" horiz-adv-x="1239" d="M204 1133q0 72 46 113.5t116 41.5q68 0 115 -42t47 -113q0 -72 -47 -113t-115 -41q-70 0 -116 41t-46 113zM710 1133q0 72 46 113.5t114 41.5q70 0 116 -42t46 -113q0 -72 -46 -113t-116 -41q-68 0 -114 41t-46 113z" />
<glyph unicode="&#xa9;" horiz-adv-x="1536" d="M123 600q0 180 83 323.5t229.5 224.5t330.5 81q186 0 333.5 -81t230.5 -224.5t83 -323.5t-83 -322.5t-230.5 -222.5t-333.5 -80q-184 0 -330.5 80t-229.5 222.5t-83 322.5zM272 598q0 -145 63.5 -260t176.5 -179.5t254 -64.5q143 0 257 64.5t177.5 179.5t63.5 260 q0 147 -63.5 264t-177.5 182.5t-257 65.5q-141 0 -254 -65.5t-176.5 -182.5t-63.5 -264zM442 598q0 150 92.5 242t233.5 92q55 0 104.5 -20.5t75.5 -55.5v64h115v-232h-111q-14 61 -60 98t-110 37q-84 0 -140 -61.5t-56 -159.5q0 -100 56 -163.5t140 -63.5q57 0 113.5 28.5 t87.5 75.5l92 -61q-41 -68 -123 -110t-172 -42q-96 0 -174 43t-121 119t-43 170z" />
<glyph unicode="&#xab;" horiz-adv-x="1265" d="M145 565l293 457h232l-236 -455l236 -448h-232zM616 565l293 457h232l-236 -455l236 -448h-232z" />
<glyph unicode="&#xad;" d="M104 391v187h576v-187h-576z" />
<glyph unicode="&#xae;" horiz-adv-x="1536" d="M123 600q0 180 81 322.5t226 223.5t334 81q188 0 334.5 -81t228.5 -224.5t82 -321.5t-82 -319.5t-228.5 -222.5t-334.5 -81q-186 0 -332.5 81t-227.5 222.5t-81 319.5zM274 598q0 -143 61.5 -258t173.5 -179.5t255 -64.5t256 64.5t175 179.5t62 258q0 145 -62 261 t-175 182.5t-256 66.5t-255 -65.5t-173.5 -182.5t-61.5 -262zM483 301v70h90v495h-90v72h316q96 0 156.5 -46t60.5 -122q0 -61 -40 -105t-106 -61l129 -233h91v-70h-164l-156 291h-90v-221h84v-70h-281zM680 668h113q53 0 84.5 27.5t31.5 72.5t-30.5 71.5t-79.5 26.5h-119 v-198z" />
<glyph unicode="&#xb4;" horiz-adv-x="780" d="M205 950l88 355h282l-198 -355h-172z" />
<glyph unicode="&#xb8;" horiz-adv-x="780" d="M204 -285q68 -27 117 -26q72 0 72 63q0 61 -119 68l72 180h108l-30 -117q74 -10 112.5 -52t38.5 -97q0 -74 -54 -112t-134 -38q-47 0 -95.5 13.5t-87.5 37.5v80z" />
<glyph unicode="&#xbb;" horiz-adv-x="1208" d="M154 119l235 454l-235 449h231l293 -444l-293 -459h-231zM623 119l237 454l-237 449h231l293 -444l-293 -459h-231z" />
<glyph unicode="&#x2c6;" horiz-adv-x="1069" d="M205 944l176 359h312l172 -359h-191l-139 234l-139 -234h-191z" />
<glyph unicode="&#x2da;" horiz-adv-x="794" d="M204 1114q0 86 51.5 135t141.5 49t141.5 -49t51.5 -135q0 -84 -50.5 -133t-138.5 -49q-92 0 -144.5 48t-52.5 134zM307 1114q0 -41 23.5 -65.5t66.5 -24.5t66.5 24.5t23.5 65.5q0 45 -23.5 69.5t-66.5 24.5t-66.5 -24.5t-23.5 -69.5z" />
<glyph unicode="&#x2dc;" horiz-adv-x="1173" d="M205 975q12 152 76.5 223.5t161.5 71.5q41 0 83 -14.5t99 -41.5q33 -14 64.5 -26t54.5 -12q74 0 86 84h141q-12 -150 -74.5 -222.5t-161.5 -72.5q-43 0 -87 14t-97 41q-43 20 -70.5 29.5t-50.5 9.5q-74 0 -82 -84h-143z" />
<glyph unicode="&#x2000;" horiz-adv-x="682" />
<glyph unicode="&#x2001;" horiz-adv-x="1365" />
<glyph unicode="&#x2002;" horiz-adv-x="682" />
<glyph unicode="&#x2003;" horiz-adv-x="1365" />
<glyph unicode="&#x2004;" horiz-adv-x="455" />
<glyph unicode="&#x2005;" horiz-adv-x="341" />
<glyph unicode="&#x2006;" horiz-adv-x="227" />
<glyph unicode="&#x2007;" horiz-adv-x="227" />
<glyph unicode="&#x2008;" horiz-adv-x="170" />
<glyph unicode="&#x2009;" horiz-adv-x="273" />
<glyph unicode="&#x200a;" horiz-adv-x="75" />
<glyph unicode="&#x2010;" d="M104 391v187h576v-187h-576z" />
<glyph unicode="&#x2011;" d="M104 391v187h576v-187h-576z" />
<glyph unicode="&#x2012;" d="M104 391v187h576v-187h-576z" />
<glyph unicode="&#x2013;" horiz-adv-x="1363" d="M0 391v187h1364v-187h-1364z" />
<glyph unicode="&#x2014;" horiz-adv-x="1654" d="M0 391v187h1655v-187h-1655z" />
<glyph unicode="&#x2018;" horiz-adv-x="456" d="M113 717v205q0 166 63.5 243.5t208.5 77.5v-102q-61 -2 -90 -41t-29 -127h121v-256h-274z" />
<glyph unicode="&#x2019;" horiz-adv-x="456" d="M70 989v256h274v-205q0 -166 -63.5 -243.5t-208.5 -77.5v102q61 2 90 41t29 127h-121z" />
<glyph unicode="&#x201a;" horiz-adv-x="456" d="M70 0v256h274v-205q0 -166 -63.5 -243.5t-208.5 -77.5v102q61 2 90 41t29 127h-121z" />
<glyph unicode="&#x201c;" horiz-adv-x="813" d="M113 717v205q0 166 63.5 243.5t208.5 77.5v-102q-61 -2 -90 -41t-29 -127h121v-256h-274zM469 717v205q0 166 63.5 243.5t208.5 77.5v-102q-61 -2 -89.5 -41t-28.5 -127h120v-256h-274z" />
<glyph unicode="&#x201d;" horiz-adv-x="813" d="M70 989v256h274v-205q0 -166 -63.5 -243.5t-208.5 -77.5v102q61 2 90 41t29 127h-121zM426 989v256h274v-205q0 -166 -63.5 -243.5t-208.5 -77.5v102q61 2 90 41t29 127h-121z" />
<glyph unicode="&#x201e;" horiz-adv-x="813" d="M70 0v256h274v-205q0 -166 -63.5 -243.5t-208.5 -77.5v102q61 2 90 41t29 127h-121zM426 0v256h274v-205q0 -166 -63.5 -243.5t-208.5 -77.5v102q61 2 90 41t29 127h-121z" />
<glyph unicode="&#x2022;" horiz-adv-x="591" d="M80 514q0 86 61.5 146.5t153.5 60.5q98 0 157.5 -57.5t59.5 -149.5q0 -86 -60.5 -145.5t-156.5 -59.5q-92 0 -153.5 62.5t-61.5 142.5z" />
<glyph unicode="&#x2026;" horiz-adv-x="1402" d="M123 0v254h272v-254h-272zM545 0v254h272v-254h-272zM965 0v254h272v-254h-272z" />
<glyph unicode="&#x202f;" horiz-adv-x="273" />
<glyph unicode="&#x2039;" horiz-adv-x="878" d="M150 565l327 457h232l-236 -455l236 -448h-232z" />
<glyph unicode="&#x203a;" horiz-adv-x="878" d="M199 119l235 454l-235 449h229l330 -444l-330 -459h-229z" />
<glyph unicode="&#x205f;" horiz-adv-x="341" />
<glyph unicode="&#x20ac;" horiz-adv-x="1482" d="M-39 412v112h115q-2 20 -2 66q0 45 2 67h-115v115h135q55 203 219 317.5t394 114.5q127 0 227 -39t162 -110v129h229v-422h-197q-53 102 -135 153.5t-200 51.5q-117 0 -201 -51.5t-127 -143.5h391v-115h-422q-4 -41 -4 -63q0 -25 4 -70h422v-112h-391q41 -92 119 -143.5 t182 -51.5q256 0 317 270l273 -94q-43 -190 -203 -301.5t-407 -111.5q-244 0 -420 114.5t-232 317.5h-135z" />
<glyph unicode="&#x2122;" horiz-adv-x="1822" d="M131 868v285h614v-285h-131v183h-90v-486h101v-100h-373v100h102v486h-92v-183h-131zM834 465v102h81v484h-81v102h266l176 -405l178 405h277v-102h-82v-484h82v-102h-324v102h88v400l-180 -455h-82l-186 457v-402h88v-102h-301z" />
<glyph unicode="&#x25fc;" horiz-adv-x="819" d="M0 0v819h819v-819h-819z" />
</font>
</defs>
</svg>
